<svg width="20" height="20" viewBox="0 0 20 20" fill="none" xmlns="http://www.w3.org/2000/svg">
<path d="M10.9932 16.0738C11.1493 16.23 11.237 16.4417 11.237 16.6625C11.237 16.8834 11.1493 17.0951 10.9932 17.2513L9.95829 18.2925C8.86382 19.3863 7.37967 20.0005 5.83235 20C4.28503 19.9995 2.80127 19.3844 1.70749 18.2899C0.613716 17.1954 -0.000487843 15.7113 2.90733e-07 14.164C0.000488425 12.6166 0.615629 11.1329 1.7101 10.0391L4.22141 7.5278C5.27267 6.4757 6.68626 5.86511 8.1729 5.82098C9.65955 5.77685 11.1069 6.30252 12.2187 7.29041C12.3007 7.36315 12.3676 7.45133 12.4156 7.54993C12.4635 7.64853 12.4916 7.75561 12.4982 7.86505C12.5048 7.97449 12.4897 8.08416 12.4539 8.18779C12.4181 8.29142 12.3622 8.38698 12.2895 8.46902C12.2167 8.55106 12.1286 8.61796 12.03 8.66592C11.9314 8.71388 11.8243 8.74194 11.7148 8.74852C11.6054 8.75509 11.4957 8.74005 11.3921 8.70424C11.2885 8.66843 11.1929 8.61256 11.1109 8.53982C10.3168 7.83464 9.28329 7.45946 8.22175 7.491C7.16022 7.52255 6.15083 7.95844 5.40002 8.70953L2.88871 11.2177C2.10752 11.9989 1.66865 13.0584 1.66865 14.1632C1.66865 15.268 2.10752 16.3275 2.88871 17.1087C3.6699 17.8899 4.72942 18.3288 5.83419 18.3288C6.93896 18.3288 7.99849 17.8899 8.77968 17.1087L9.8146 16.0738C9.89196 15.9963 9.98383 15.9349 10.0849 15.893C10.1861 15.851 10.2944 15.8295 10.4039 15.8295C10.5134 15.8295 10.6218 15.851 10.7229 15.893C10.824 15.9349 10.9159 15.9963 10.9932 16.0738ZM18.2898 1.70554C17.1951 0.613371 15.712 0 14.1657 0C12.6194 0 11.1362 0.613371 10.0416 1.70554L9.00665 2.74151C8.8505 2.89781 8.76282 3.10973 8.76292 3.33067C8.76302 3.5516 8.85088 3.76345 9.00717 3.9196C9.16347 4.07576 9.37539 4.16343 9.59633 4.16333C9.81726 4.16324 10.0291 4.07538 10.1853 3.91908L11.2202 2.88415C12.0014 2.10296 13.0609 1.6641 14.1657 1.6641C15.2704 1.6641 16.33 2.10296 17.1112 2.88415C17.8924 3.66535 18.3312 4.72487 18.3312 5.82964C18.3312 6.93441 17.8924 7.99393 17.1112 8.77513L14.5998 11.2885C13.8486 12.0392 12.839 12.4745 11.7775 12.5055C10.716 12.5364 9.6827 12.1607 8.889 11.4551C8.72332 11.3082 8.50606 11.2331 8.28503 11.2464C8.064 11.2597 7.85729 11.3602 7.71039 11.5259C7.56348 11.6916 7.48841 11.9088 7.50169 12.1299C7.51497 12.3509 7.61551 12.5576 7.78119 12.7045C8.89274 13.6927 10.3399 14.2187 11.8265 14.175C13.3132 14.1312 14.7269 13.521 15.7785 12.4692L18.2898 9.9579C19.3826 8.86319 19.9964 7.37958 19.9964 5.83276C19.9964 4.28595 19.3826 2.80234 18.2898 1.70763V1.70554Z" fill="#FFFBEC"/>
</svg>
