<svg width="19" height="19" viewBox="0 0 19 19" fill="none" xmlns="http://www.w3.org/2000/svg">
<path fill-rule="evenodd" clip-rule="evenodd" d="M12.586 0.585573C12.9611 0.210631 13.4697 0 14 0C14.5303 0 15.0389 0.210631 15.414 0.585573L18 3.17157C18.3749 3.54663 18.5856 4.05524 18.5856 4.58557C18.5856 5.1159 18.3749 5.62452 18 5.99957L16.414 7.58557L11 2.17157L12.586 0.585573ZM9.586 3.58557L0.586 12.5856C0.210901 12.9606 0.000113275 13.4692 0 13.9996V16.5856C0 17.116 0.210714 17.6247 0.585786 17.9998C0.960859 18.3749 1.46957 18.5856 2 18.5856H4.586C5.11639 18.5855 5.62501 18.3747 6 17.9996L15 8.99957L9.586 3.58557Z" fill="#FFFBEC"/>
</svg>
