<svg width="26" height="18" viewBox="0 0 26 18" fill="none" xmlns="http://www.w3.org/2000/svg">
<path d="M10.2857 12.8571L16.9586 9L10.2857 5.14286V12.8571ZM25.1486 2.79C25.3157 3.39429 25.4314 4.20429 25.5086 5.23286C25.5986 6.26143 25.6371 7.14857 25.6371 7.92L25.7143 9C25.7143 11.8157 25.5086 13.8857 25.1486 15.21C24.8271 16.3671 24.0814 17.1129 22.9243 17.4343C22.32 17.6014 21.2143 17.7171 19.5171 17.7943C17.8457 17.8843 16.3157 17.9229 14.9014 17.9229L12.8571 18C7.47 18 4.11429 17.7943 2.79 17.4343C1.63286 17.1129 0.887143 16.3671 0.565714 15.21C0.398572 14.6057 0.282857 13.7957 0.205714 12.7671C0.115714 11.7386 0.0771428 10.8514 0.0771428 10.08L0 9C0 6.18429 0.205714 4.11429 0.565714 2.79C0.887143 1.63286 1.63286 0.887143 2.79 0.565714C3.39429 0.398572 4.5 0.282857 6.19714 0.205714C7.86857 0.115714 9.39857 0.0771428 10.8129 0.0771428L12.8571 0C18.2443 0 21.6 0.205714 22.9243 0.565714C24.0814 0.887143 24.8271 1.63286 25.1486 2.79Z" fill="#FFFBEC"/>
</svg>
