<svg width="16" height="18" viewBox="0 0 16 18" fill="none" xmlns="http://www.w3.org/2000/svg">
<path d="M1.8 18C1.305 18 0.881101 17.8236 0.528301 17.4708C0.175501 17.118 -0.000598472 16.6944 1.52801e-06 16.2V3.6H1.8V16.2H11.7V18H1.8ZM5.4 14.4C4.905 14.4 4.4811 14.2236 4.1283 13.8708C3.7755 13.518 3.5994 13.0944 3.6 12.6V1.8C3.6 1.305 3.7764 0.881101 4.1292 0.528301C4.482 0.175501 4.9056 -0.000598472 5.4 1.52801e-06H13.5C13.995 1.52801e-06 14.4189 0.176402 14.7717 0.529202C15.1245 0.882001 15.3006 1.3056 15.3 1.8V12.6C15.3 13.095 15.1236 13.5189 14.7708 13.8717C14.418 14.2245 13.9944 14.4006 13.5 14.4H5.4Z" fill="#FFFBEC"/>
</svg>
