<svg width="23" height="18" viewBox="0 0 23 18" fill="none" xmlns="http://www.w3.org/2000/svg">
<path d="M22.2632 2.11765C21.4437 2.48824 20.5604 2.73176 19.6452 2.84824C20.5817 2.28706 21.3054 1.39765 21.6459 0.328235C20.7626 0.857647 19.7836 1.22824 18.7513 1.44C17.9106 0.529412 16.7293 0 15.3884 0C12.8875 0 10.8442 2.03294 10.8442 4.54235C10.8442 4.90235 10.8868 5.25177 10.9613 5.58C7.17274 5.38941 3.79921 3.57882 1.55374 0.836471C1.15998 1.50353 0.9365 2.28706 0.9365 3.11294C0.9365 4.69059 1.73465 6.08824 2.96913 6.88235C2.21355 6.88235 1.51117 6.67059 0.893932 6.35294V6.38471C0.893932 8.58706 2.46895 10.4294 4.5548 10.8424C3.88512 11.0247 3.18207 11.0501 2.50088 10.9165C2.78993 11.8191 3.35601 12.6089 4.11955 13.1749C4.8831 13.7408 5.80571 14.0545 6.7577 14.0718C5.14397 15.3428 3.14366 16.0299 1.08549 16.02C0.723659 16.02 0.36183 15.9988 0 15.9565C2.02199 17.2482 4.42709 18 7.00247 18C15.3884 18 19.9964 11.0753 19.9964 5.07176C19.9964 4.87059 19.9964 4.68 19.9858 4.47882C20.8797 3.84353 21.6459 3.03882 22.2632 2.11765Z" fill="#FFFBEC"/>
</svg>
