<svg width="300" height="60" viewBox="0 0 300 60" fill="none" xmlns="http://www.w3.org/2000/svg">
<path d="M242 2H295C296.657 2 298 3.34315 298 5V55C298 56.6569 296.657 58 295 58H242V2Z" fill="#FFFBEC" stroke="#301E1E" stroke-width="4"/>
<path d="M2 5C2 3.34315 3.34315 2 5 2H242V58H4.99999C3.34314 58 2 56.6569 2 55V5Z" fill="#FFFBEC" stroke="#301E1E" stroke-width="4"/>
<path d="M23.84 41C22.64 41 21.92 40.42 21.68 39.26L17.99 22.16C17.85 21.46 17.91 20.93 18.17 20.57C18.45 20.19 18.9 20 19.52 20C20.22 20 20.76 20.14 21.14 20.42C21.52 20.68 21.76 21.13 21.86 21.77L24.17 33.98L27.29 21.71C27.59 20.57 28.31 20 29.45 20C30.59 20 31.31 20.57 31.61 21.71L34.73 33.98L37.04 21.77C37.24 20.59 37.95 20 39.17 20C39.87 20 40.38 20.19 40.7 20.57C41.02 20.95 41.1 21.49 40.94 22.19L37.25 39.26C37.01 40.42 36.28 41 35.06 41C33.88 41 33.14 40.43 32.84 39.29L29.45 26.03L26.06 39.29C25.76 40.43 25.02 41 23.84 41ZM45.9216 41C44.6016 41 43.9416 40.34 43.9416 39.02V21.98C43.9416 20.66 44.6016 20 45.9216 20H56.2716C57.5916 20 58.2516 20.6 58.2516 21.8C58.2516 23 57.5916 23.6 56.2716 23.6H47.8416V28.49H55.3716C56.6916 28.49 57.3516 29.09 57.3516 30.29C57.3516 31.49 56.6916 32.09 55.3716 32.09H47.8416V37.4H56.6016C57.9216 37.4 58.5816 38 58.5816 39.2C58.5816 40.4 57.9216 41 56.6016 41H45.9216ZM63.4384 41C62.1984 41 61.5784 40.38 61.5784 39.14V21.86C61.5784 20.62 62.1984 20 63.4384 20H70.7284C71.8284 20 72.8184 20.2 73.6984 20.6C74.5984 21 75.3084 21.6 75.8284 22.4C76.3684 23.18 76.6384 24.15 76.6384 25.31C76.6384 26.55 76.3584 27.58 75.7984 28.4C75.2584 29.22 74.5684 29.76 73.7284 30.02C74.4284 30.12 75.0584 30.41 75.6184 30.89C76.1984 31.35 76.6584 31.96 76.9984 32.72C77.3384 33.48 77.5084 34.34 77.5084 35.3C77.5084 37.28 76.9084 38.73 75.7084 39.65C74.5284 40.55 72.9584 41 70.9984 41H63.4384ZM65.4784 37.4H70.4584C71.3984 37.4 72.1084 37.19 72.5884 36.77C73.0684 36.35 73.3084 35.68 73.3084 34.76C73.3084 33.88 73.0284 33.23 72.4684 32.81C71.9084 32.37 71.2384 32.15 70.4584 32.15H65.4784V37.4ZM65.4784 28.52H69.9484C71.5684 28.52 72.3784 27.66 72.3784 25.94C72.3784 25.16 72.1584 24.58 71.7184 24.2C71.2984 23.8 70.7084 23.6 69.9484 23.6H65.4784V28.52ZM95.6828 41.2C95.1828 41.3167 94.7078 41.25 94.2578 41C93.8078 40.7333 93.5161 40.35 93.3828 39.85C93.2661 39.35 93.3411 38.8833 93.6078 38.45C93.8745 38 94.2495 37.7167 94.7328 37.6C96.5495 37.15 97.8328 36.4083 98.5828 35.375C99.3495 34.3417 99.7328 33.0333 99.7328 31.45C99.7328 30.0333 99.2828 28.8417 98.3828 27.875C97.4995 26.9083 96.2411 26.3167 94.6078 26.1C94.2745 28.95 93.7328 31.3917 92.9828 33.425C92.2495 35.4583 91.3828 37.0167 90.3828 38.1C89.3995 39.1833 88.3661 39.725 87.2828 39.725C86.3328 39.725 85.4661 39.4583 84.6828 38.925C83.8995 38.3917 83.2745 37.625 82.8078 36.625C82.3411 35.6083 82.1078 34.375 82.1078 32.925C82.1078 31.525 82.3745 30.2083 82.9078 28.975C83.4411 27.725 84.1995 26.625 85.1828 25.675C86.1661 24.7083 87.3328 23.9583 88.6828 23.425C90.0495 22.875 91.5578 22.6 93.2078 22.6C94.6911 22.6 96.0495 22.8167 97.2828 23.25C98.5328 23.6667 99.6078 24.2667 100.508 25.05C101.424 25.8333 102.133 26.7667 102.633 27.85C103.133 28.9333 103.383 30.1333 103.383 31.45C103.383 33.9667 102.749 36.0667 101.483 37.75C100.216 39.4167 98.2828 40.5667 95.6828 41.2ZM87.3078 35.925C87.5911 35.925 87.9745 35.5333 88.4578 34.75C88.9411 33.95 89.4245 32.825 89.9078 31.375C90.3911 29.925 90.7578 28.2167 91.0078 26.25C89.8578 26.5333 88.8911 27.0167 88.1078 27.7C87.3245 28.3667 86.7328 29.1583 86.3328 30.075C85.9495 30.975 85.7495 31.9083 85.7328 32.875C85.7161 33.9417 85.8495 34.7167 86.1328 35.2C86.4328 35.6833 86.8245 35.925 87.3078 35.925ZM126.428 43.01C125.828 43.15 125.238 43.09 124.658 42.83C124.098 42.57 123.738 42.14 123.578 41.54C123.418 40.96 123.498 40.41 123.818 39.89C124.138 39.37 124.588 39.03 125.168 38.87C126.708 38.41 127.838 37.77 128.558 36.95C129.278 36.13 129.638 35.05 129.638 33.71C129.638 32.77 129.368 31.94 128.828 31.22C128.308 30.5 127.518 29.95 126.458 29.57C126.138 30.99 125.668 32.34 125.048 33.62C124.448 34.9 123.738 36.07 122.918 37.13C122.958 37.19 122.998 37.25 123.038 37.31C123.078 37.37 123.108 37.43 123.128 37.49C123.468 37.99 123.578 38.55 123.458 39.17C123.358 39.77 123.048 40.24 122.528 40.58C122.088 40.86 121.608 40.97 121.088 40.91C120.568 40.85 120.128 40.64 119.768 40.28C118.848 40.96 117.898 41.49 116.918 41.87C115.938 42.25 114.948 42.44 113.948 42.44C112.408 42.44 111.158 42.02 110.198 41.18C109.238 40.34 108.758 38.96 108.758 37.04C108.758 35.54 109.078 34.14 109.718 32.84C110.358 31.54 111.228 30.38 112.328 29.36C113.448 28.34 114.698 27.49 116.078 26.81C116.078 25.91 116.108 24.98 116.168 24.02C114.508 24.12 112.978 24.15 111.578 24.11C110.998 24.11 110.508 23.89 110.108 23.45C109.708 22.99 109.518 22.47 109.538 21.89C109.578 21.29 109.818 20.8 110.258 20.42C110.698 20.02 111.208 19.83 111.788 19.85C112.548 19.87 113.328 19.87 114.128 19.85C114.948 19.83 115.778 19.81 116.618 19.79C116.678 19.43 116.738 19.08 116.798 18.74C116.878 18.38 116.958 18.02 117.038 17.66C117.158 17.06 117.468 16.59 117.968 16.25C118.468 15.91 119.018 15.81 119.618 15.95C120.238 16.07 120.708 16.39 121.028 16.91C121.348 17.43 121.438 17.99 121.298 18.59C121.278 18.73 121.248 18.87 121.208 19.01C121.188 19.15 121.158 19.3 121.118 19.46C121.878 19.38 122.608 19.3 123.308 19.22C124.028 19.12 124.698 19.03 125.318 18.95C125.898 18.85 126.428 18.97 126.908 19.31C127.408 19.63 127.708 20.08 127.808 20.66C127.908 21.24 127.788 21.78 127.448 22.28C127.108 22.78 126.648 23.07 126.068 23.15C124.368 23.39 122.498 23.59 120.458 23.75C120.438 24.03 120.418 24.31 120.398 24.59C120.378 24.85 120.358 25.12 120.338 25.4C121.278 25.22 122.228 25.13 123.188 25.13C125.548 25.13 127.518 25.5 129.098 26.24C130.698 26.96 131.898 27.97 132.698 29.27C133.518 30.55 133.928 32.03 133.928 33.71C133.928 36.09 133.328 38.09 132.128 39.71C130.928 41.33 129.028 42.43 126.428 43.01ZM114.368 38.3C114.888 38.3 115.448 38.15 116.048 37.85C116.648 37.55 117.248 37.14 117.848 36.62C117.528 35.8 117.248 34.93 117.008 34.01C116.788 33.09 116.598 32.14 116.438 31.16C115.378 31.9 114.538 32.78 113.918 33.8C113.298 34.82 112.988 35.86 112.988 36.92C113.008 37.48 113.118 37.85 113.318 38.03C113.518 38.21 113.868 38.3 114.368 38.3ZM120.968 32.6C121.588 31.5 122.058 30.34 122.378 29.12C122.038 29.14 121.698 29.18 121.358 29.24C121.038 29.28 120.718 29.34 120.398 29.42C120.458 29.98 120.528 30.52 120.608 31.04C120.708 31.56 120.828 32.08 120.968 32.6ZM145.688 43.55C145.108 43.55 144.598 43.34 144.158 42.92C143.738 42.5 143.528 41.99 143.528 41.39V36.38C143.308 36.72 143.098 37.04 142.898 37.34C142.718 37.64 142.548 37.92 142.388 38.18C142.068 38.72 141.598 39.06 140.978 39.2C140.378 39.32 139.818 39.21 139.298 38.87C138.798 38.53 138.488 38.06 138.368 37.46C138.268 36.84 138.398 36.28 138.758 35.78C139.378 34.9 140.088 33.88 140.888 32.72C141.708 31.54 142.588 30.35 143.528 29.15V26.09C143.268 26.15 142.938 26.25 142.538 26.39C142.138 26.51 141.758 26.62 141.398 26.72C141.058 26.82 140.818 26.89 140.678 26.93C140.078 27.07 139.518 26.98 138.998 26.66C138.478 26.32 138.148 25.85 138.008 25.25C137.868 24.65 137.968 24.09 138.308 23.57C138.648 23.05 139.118 22.72 139.718 22.58C139.938 22.52 140.248 22.45 140.648 22.37C141.068 22.29 141.488 22.2 141.908 22.1C142.328 22 142.668 21.93 142.928 21.89C143.028 21.85 143.128 21.83 143.228 21.83C143.348 21.81 143.448 21.79 143.528 21.77V17.93C143.528 17.33 143.738 16.82 144.158 16.4C144.598 15.98 145.108 15.77 145.688 15.77C146.288 15.77 146.798 15.98 147.218 16.4C147.658 16.82 147.878 17.33 147.878 17.93V22.31C148.238 22.57 148.548 22.91 148.808 23.33C148.848 23.37 148.878 23.41 148.898 23.45C148.918 23.49 148.938 23.53 148.958 23.57C149.818 22.93 150.688 22.42 151.568 22.04C152.448 21.64 153.328 21.44 154.208 21.44C156.528 21.44 158.168 22.19 159.128 23.69C160.108 25.19 160.328 27.49 159.788 30.59C159.548 31.97 159.368 33.06 159.248 33.86C159.148 34.64 159.098 35.23 159.098 35.63C159.098 36.01 159.128 36.27 159.188 36.41C159.268 36.55 159.368 36.65 159.488 36.71C159.888 36.93 160.298 36.95 160.718 36.77C161.158 36.57 161.658 36.22 162.218 35.72C162.678 35.3 163.218 35.14 163.838 35.24C164.478 35.34 164.988 35.62 165.368 36.08C165.768 36.56 165.938 37.11 165.878 37.73C165.818 38.35 165.558 38.87 165.098 39.29C163.698 40.57 162.228 41.32 160.688 41.54C159.148 41.76 157.788 41.52 156.608 40.82C155.508 40.14 154.848 39.11 154.628 37.73C154.428 36.35 154.568 34.45 155.048 32.03C155.408 30.27 155.578 28.95 155.558 28.07C155.558 27.17 155.398 26.56 155.078 26.24C154.778 25.92 154.358 25.76 153.818 25.76C153.298 25.76 152.708 25.97 152.048 26.39C151.408 26.81 150.728 27.37 150.008 28.07C149.308 28.77 148.598 29.55 147.878 30.41V41.39C147.878 41.99 147.658 42.5 147.218 42.92C146.798 43.34 146.288 43.55 145.688 43.55ZM189.608 40.61C186.548 41.33 183.788 41.64 181.328 41.54C178.888 41.44 176.848 40.96 175.208 40.1C173.588 39.22 172.458 38 171.818 36.44C171.578 35.86 171.578 35.29 171.818 34.73C172.078 34.15 172.488 33.75 173.048 33.53C173.628 33.29 174.198 33.29 174.758 33.53C175.318 33.77 175.718 34.18 175.958 34.76C176.238 35.42 176.888 35.98 177.908 36.44C178.928 36.88 180.328 37.12 182.108 37.16C183.888 37.18 186.048 36.89 188.588 36.29C189.188 36.13 189.748 36.22 190.268 36.56C190.788 36.88 191.118 37.34 191.258 37.94C191.418 38.54 191.328 39.1 190.988 39.62C190.668 40.14 190.208 40.47 189.608 40.61ZM186.638 24.2C185.518 23.92 184.348 23.71 183.128 23.57C181.908 23.43 180.708 23.35 179.528 23.33C178.368 23.31 177.298 23.35 176.318 23.45C175.698 23.53 175.148 23.38 174.668 23C174.188 22.62 173.908 22.12 173.828 21.5C173.748 20.9 173.898 20.35 174.278 19.85C174.658 19.35 175.158 19.07 175.778 19.01C176.998 18.91 178.308 18.88 179.708 18.92C181.128 18.94 182.528 19.03 183.908 19.19C185.308 19.35 186.568 19.58 187.688 19.88C188.288 20.02 188.748 20.35 189.068 20.87C189.408 21.39 189.498 21.95 189.338 22.55C189.198 23.15 188.858 23.61 188.318 23.93C187.798 24.25 187.238 24.34 186.638 24.2ZM205.688 43.55C205.108 43.55 204.598 43.34 204.158 42.92C203.738 42.5 203.528 41.99 203.528 41.39V36.38C203.308 36.72 203.098 37.04 202.898 37.34C202.718 37.64 202.548 37.92 202.388 38.18C202.068 38.72 201.598 39.06 200.978 39.2C200.378 39.32 199.818 39.21 199.298 38.87C198.798 38.53 198.488 38.06 198.368 37.46C198.268 36.84 198.398 36.28 198.758 35.78C199.378 34.9 200.088 33.88 200.888 32.72C201.708 31.54 202.588 30.35 203.528 29.15V26.09C203.268 26.15 202.938 26.25 202.538 26.39C202.138 26.51 201.758 26.62 201.398 26.72C201.058 26.82 200.818 26.89 200.678 26.93C200.078 27.07 199.518 26.98 198.998 26.66C198.478 26.32 198.148 25.85 198.008 25.25C197.868 24.65 197.968 24.09 198.308 23.57C198.648 23.05 199.118 22.72 199.718 22.58C199.938 22.52 200.248 22.45 200.648 22.37C201.068 22.29 201.488 22.2 201.908 22.1C202.328 22 202.668 21.93 202.928 21.89C203.028 21.85 203.128 21.83 203.228 21.83C203.348 21.81 203.448 21.79 203.528 21.77V17.93C203.528 17.33 203.738 16.82 204.158 16.4C204.598 15.98 205.108 15.77 205.688 15.77C206.288 15.77 206.798 15.98 207.218 16.4C207.658 16.82 207.878 17.33 207.878 17.93V22.31C208.238 22.57 208.548 22.91 208.808 23.33C208.848 23.37 208.878 23.41 208.898 23.45C208.918 23.49 208.938 23.53 208.958 23.57C209.818 22.93 210.688 22.42 211.568 22.04C212.448 21.64 213.328 21.44 214.208 21.44C216.528 21.44 218.168 22.19 219.128 23.69C220.108 25.19 220.328 27.49 219.788 30.59C219.548 31.97 219.368 33.06 219.248 33.86C219.148 34.64 219.098 35.23 219.098 35.63C219.098 36.01 219.128 36.27 219.188 36.41C219.268 36.55 219.368 36.65 219.488 36.71C219.888 36.93 220.298 36.95 220.718 36.77C221.158 36.57 221.658 36.22 222.218 35.72C222.678 35.3 223.218 35.14 223.838 35.24C224.478 35.34 224.988 35.62 225.368 36.08C225.768 36.56 225.938 37.11 225.878 37.73C225.818 38.35 225.558 38.87 225.098 39.29C223.698 40.57 222.228 41.32 220.688 41.54C219.148 41.76 217.788 41.52 216.608 40.82C215.508 40.14 214.848 39.11 214.628 37.73C214.428 36.35 214.568 34.45 215.048 32.03C215.408 30.27 215.578 28.95 215.558 28.07C215.558 27.17 215.398 26.56 215.078 26.24C214.778 25.92 214.358 25.76 213.818 25.76C213.298 25.76 212.708 25.97 212.048 26.39C211.408 26.81 210.728 27.37 210.008 28.07C209.308 28.77 208.598 29.55 207.878 30.41V41.39C207.878 41.99 207.658 42.5 207.218 42.92C206.798 43.34 206.288 43.55 205.688 43.55Z" fill="#301E1E"/>
<path d="M260.808 39.1924L279.192 20.8076" stroke="#301E1E" stroke-width="4"/>
<path d="M279.192 39.1924L260.808 20.8076" stroke="#301E1E" stroke-width="4"/>
</svg>
