<svg width="210" height="30" viewBox="0 0 210 30" fill="none" xmlns="http://www.w3.org/2000/svg">
<path d="M6.84 27C5.64 27 4.92 26.42 4.68 25.26L0.99 8.16C0.85 7.46 0.91 6.93 1.17 6.57C1.45 6.19 1.9 6 2.52 6C3.22 6 3.76 6.14 4.14 6.42C4.52 6.68 4.76 7.13 4.86 7.77L7.17 19.98L10.29 7.71C10.59 6.57 11.31 6 12.45 6C13.59 6 14.31 6.57 14.61 7.71L17.73 19.98L20.04 7.77C20.24 6.59 20.95 6 22.17 6C22.87 6 23.38 6.19 23.7 6.57C24.02 6.95 24.1 7.49 23.94 8.19L20.25 25.26C20.01 26.42 19.28 27 18.06 27C16.88 27 16.14 26.43 15.84 25.29L12.45 12.03L9.06 25.29C8.76 26.43 8.02 27 6.84 27ZM28.9216 27C27.6016 27 26.9416 26.34 26.9416 25.02V7.98C26.9416 6.66 27.6016 6 28.9216 6H39.2716C40.5916 6 41.2516 6.6 41.2516 7.8C41.2516 9 40.5916 9.6 39.2716 9.6H30.8416V14.49H38.3716C39.6916 14.49 40.3516 15.09 40.3516 16.29C40.3516 17.49 39.6916 18.09 38.3716 18.09H30.8416V23.4H39.6016C40.9216 23.4 41.5816 24 41.5816 25.2C41.5816 26.4 40.9216 27 39.6016 27H28.9216ZM46.4384 27C45.1984 27 44.5784 26.38 44.5784 25.14V7.86C44.5784 6.62 45.1984 6 46.4384 6H53.7284C54.8284 6 55.8184 6.2 56.6984 6.6C57.5984 7 58.3084 7.6 58.8284 8.4C59.3684 9.18 59.6384 10.15 59.6384 11.31C59.6384 12.55 59.3584 13.58 58.7984 14.4C58.2584 15.22 57.5684 15.76 56.7284 16.02C57.4284 16.12 58.0584 16.41 58.6184 16.89C59.1984 17.35 59.6584 17.96 59.9984 18.72C60.3384 19.48 60.5084 20.34 60.5084 21.3C60.5084 23.28 59.9084 24.73 58.7084 25.65C57.5284 26.55 55.9584 27 53.9984 27H46.4384ZM48.4784 23.4H53.4584C54.3984 23.4 55.1084 23.19 55.5884 22.77C56.0684 22.35 56.3084 21.68 56.3084 20.76C56.3084 19.88 56.0284 19.23 55.4684 18.81C54.9084 18.37 54.2384 18.15 53.4584 18.15H48.4784V23.4ZM48.4784 14.52H52.9484C54.5684 14.52 55.3784 13.66 55.3784 11.94C55.3784 11.16 55.1584 10.58 54.7184 10.2C54.2984 9.8 53.7084 9.6 52.9484 9.6H48.4784V14.52ZM78.6828 27.2C78.1828 27.3167 77.7078 27.25 77.2578 27C76.8078 26.7333 76.5161 26.35 76.3828 25.85C76.2661 25.35 76.3411 24.8833 76.6078 24.45C76.8745 24 77.2495 23.7167 77.7328 23.6C79.5495 23.15 80.8328 22.4083 81.5828 21.375C82.3495 20.3417 82.7328 19.0333 82.7328 17.45C82.7328 16.0333 82.2828 14.8417 81.3828 13.875C80.4995 12.9083 79.2411 12.3167 77.6078 12.1C77.2745 14.95 76.7328 17.3917 75.9828 19.425C75.2495 21.4583 74.3828 23.0167 73.3828 24.1C72.3995 25.1833 71.3661 25.725 70.2828 25.725C69.3328 25.725 68.4661 25.4583 67.6828 24.925C66.8995 24.3917 66.2745 23.625 65.8078 22.625C65.3411 21.6083 65.1078 20.375 65.1078 18.925C65.1078 17.525 65.3745 16.2083 65.9078 14.975C66.4411 13.725 67.1995 12.625 68.1828 11.675C69.1661 10.7083 70.3328 9.95833 71.6828 9.425C73.0495 8.875 74.5578 8.6 76.2078 8.6C77.6911 8.6 79.0495 8.81667 80.2828 9.25C81.5328 9.66667 82.6078 10.2667 83.5078 11.05C84.4245 11.8333 85.1328 12.7667 85.6328 13.85C86.1328 14.9333 86.3828 16.1333 86.3828 17.45C86.3828 19.9667 85.7495 22.0667 84.4828 23.75C83.2161 25.4167 81.2828 26.5667 78.6828 27.2ZM70.3078 21.925C70.5911 21.925 70.9745 21.5333 71.4578 20.75C71.9411 19.95 72.4245 18.825 72.9078 17.375C73.3911 15.925 73.7578 14.2167 74.0078 12.25C72.8578 12.5333 71.8911 13.0167 71.1078 13.7C70.3245 14.3667 69.7328 15.1583 69.3328 16.075C68.9495 16.975 68.7495 17.9083 68.7328 18.875C68.7161 19.9417 68.8495 20.7167 69.1328 21.2C69.4328 21.6833 69.8245 21.925 70.3078 21.925ZM109.428 29.01C108.828 29.15 108.238 29.09 107.658 28.83C107.098 28.57 106.738 28.14 106.578 27.54C106.418 26.96 106.498 26.41 106.818 25.89C107.138 25.37 107.588 25.03 108.168 24.87C109.708 24.41 110.838 23.77 111.558 22.95C112.278 22.13 112.638 21.05 112.638 19.71C112.638 18.77 112.368 17.94 111.828 17.22C111.308 16.5 110.518 15.95 109.458 15.57C109.138 16.99 108.668 18.34 108.048 19.62C107.448 20.9 106.738 22.07 105.918 23.13C105.958 23.19 105.998 23.25 106.038 23.31C106.078 23.37 106.108 23.43 106.128 23.49C106.468 23.99 106.578 24.55 106.458 25.17C106.358 25.77 106.048 26.24 105.528 26.58C105.088 26.86 104.608 26.97 104.088 26.91C103.568 26.85 103.128 26.64 102.768 26.28C101.848 26.96 100.898 27.49 99.9178 27.87C98.9378 28.25 97.9478 28.44 96.9478 28.44C95.4078 28.44 94.1578 28.02 93.1978 27.18C92.2378 26.34 91.7578 24.96 91.7578 23.04C91.7578 21.54 92.0778 20.14 92.7178 18.84C93.3578 17.54 94.2278 16.38 95.3278 15.36C96.4478 14.34 97.6978 13.49 99.0778 12.81C99.0778 11.91 99.1078 10.98 99.1678 10.02C97.5078 10.12 95.9778 10.15 94.5778 10.11C93.9978 10.11 93.5078 9.89 93.1078 9.45C92.7078 8.99 92.5178 8.47 92.5378 7.89C92.5778 7.29 92.8178 6.8 93.2578 6.42C93.6978 6.02 94.2078 5.83 94.7878 5.85C95.5478 5.87 96.3278 5.87 97.1278 5.85C97.9478 5.83 98.7778 5.81 99.6178 5.79C99.6778 5.43 99.7378 5.08 99.7978 4.74C99.8778 4.38 99.9578 4.02 100.038 3.66C100.158 3.06 100.468 2.59 100.968 2.25C101.468 1.91 102.018 1.81 102.618 1.95C103.238 2.07 103.708 2.39 104.028 2.91C104.348 3.43 104.438 3.99 104.298 4.59C104.278 4.73 104.248 4.87 104.208 5.01C104.188 5.15 104.158 5.3 104.118 5.46C104.878 5.38 105.608 5.3 106.308 5.22C107.028 5.12 107.698 5.03 108.318 4.95C108.898 4.85 109.428 4.97 109.908 5.31C110.408 5.63 110.708 6.08 110.808 6.66C110.908 7.24 110.788 7.78 110.448 8.28C110.108 8.78 109.648 9.07 109.068 9.15C107.368 9.39 105.498 9.59 103.458 9.75C103.438 10.03 103.418 10.31 103.398 10.59C103.378 10.85 103.358 11.12 103.338 11.4C104.278 11.22 105.228 11.13 106.188 11.13C108.548 11.13 110.518 11.5 112.098 12.24C113.698 12.96 114.898 13.97 115.698 15.27C116.518 16.55 116.928 18.03 116.928 19.71C116.928 22.09 116.328 24.09 115.128 25.71C113.928 27.33 112.028 28.43 109.428 29.01ZM97.3678 24.3C97.8878 24.3 98.4478 24.15 99.0478 23.85C99.6478 23.55 100.248 23.14 100.848 22.62C100.528 21.8 100.248 20.93 100.008 20.01C99.7878 19.09 99.5978 18.14 99.4378 17.16C98.3778 17.9 97.5378 18.78 96.9178 19.8C96.2978 20.82 95.9878 21.86 95.9878 22.92C96.0078 23.48 96.1178 23.85 96.3178 24.03C96.5178 24.21 96.8678 24.3 97.3678 24.3ZM103.968 18.6C104.588 17.5 105.058 16.34 105.378 15.12C105.038 15.14 104.698 15.18 104.358 15.24C104.038 15.28 103.718 15.34 103.398 15.42C103.458 15.98 103.528 16.52 103.608 17.04C103.708 17.56 103.828 18.08 103.968 18.6ZM128.688 29.55C128.108 29.55 127.598 29.34 127.158 28.92C126.738 28.5 126.528 27.99 126.528 27.39V22.38C126.308 22.72 126.098 23.04 125.898 23.34C125.718 23.64 125.548 23.92 125.388 24.18C125.068 24.72 124.598 25.06 123.978 25.2C123.378 25.32 122.818 25.21 122.298 24.87C121.798 24.53 121.488 24.06 121.368 23.46C121.268 22.84 121.398 22.28 121.758 21.78C122.378 20.9 123.088 19.88 123.888 18.72C124.708 17.54 125.588 16.35 126.528 15.15V12.09C126.268 12.15 125.938 12.25 125.538 12.39C125.138 12.51 124.758 12.62 124.398 12.72C124.058 12.82 123.818 12.89 123.678 12.93C123.078 13.07 122.518 12.98 121.998 12.66C121.478 12.32 121.148 11.85 121.008 11.25C120.868 10.65 120.968 10.09 121.308 9.57C121.648 9.05 122.118 8.72 122.718 8.58C122.938 8.52 123.248 8.45 123.648 8.37C124.068 8.29 124.488 8.2 124.908 8.1C125.328 8 125.668 7.93 125.928 7.89C126.028 7.85 126.128 7.83 126.228 7.83C126.348 7.81 126.448 7.79 126.528 7.77V3.93C126.528 3.33 126.738 2.82 127.158 2.4C127.598 1.98 128.108 1.77 128.688 1.77C129.288 1.77 129.798 1.98 130.218 2.4C130.658 2.82 130.878 3.33 130.878 3.93V8.31C131.238 8.57 131.548 8.91 131.808 9.33C131.848 9.37 131.878 9.41 131.898 9.45C131.918 9.49 131.938 9.53 131.958 9.57C132.818 8.93 133.688 8.42 134.568 8.04C135.448 7.64 136.328 7.44 137.208 7.44C139.528 7.44 141.168 8.19 142.128 9.69C143.108 11.19 143.328 13.49 142.788 16.59C142.548 17.97 142.368 19.06 142.248 19.86C142.148 20.64 142.098 21.23 142.098 21.63C142.098 22.01 142.128 22.27 142.188 22.41C142.268 22.55 142.368 22.65 142.488 22.71C142.888 22.93 143.298 22.95 143.718 22.77C144.158 22.57 144.658 22.22 145.218 21.72C145.678 21.3 146.218 21.14 146.838 21.24C147.478 21.34 147.988 21.62 148.368 22.08C148.768 22.56 148.938 23.11 148.878 23.73C148.818 24.35 148.558 24.87 148.098 25.29C146.698 26.57 145.228 27.32 143.688 27.54C142.148 27.76 140.788 27.52 139.608 26.82C138.508 26.14 137.848 25.11 137.628 23.73C137.428 22.35 137.568 20.45 138.048 18.03C138.408 16.27 138.578 14.95 138.558 14.07C138.558 13.17 138.398 12.56 138.078 12.24C137.778 11.92 137.358 11.76 136.818 11.76C136.298 11.76 135.708 11.97 135.048 12.39C134.408 12.81 133.728 13.37 133.008 14.07C132.308 14.77 131.598 15.55 130.878 16.41V27.39C130.878 27.99 130.658 28.5 130.218 28.92C129.798 29.34 129.288 29.55 128.688 29.55ZM172.608 26.61C169.548 27.33 166.788 27.64 164.328 27.54C161.888 27.44 159.848 26.96 158.208 26.1C156.588 25.22 155.458 24 154.818 22.44C154.578 21.86 154.578 21.29 154.818 20.73C155.078 20.15 155.488 19.75 156.048 19.53C156.628 19.29 157.198 19.29 157.758 19.53C158.318 19.77 158.718 20.18 158.958 20.76C159.238 21.42 159.888 21.98 160.908 22.44C161.928 22.88 163.328 23.12 165.108 23.16C166.888 23.18 169.048 22.89 171.588 22.29C172.188 22.13 172.748 22.22 173.268 22.56C173.788 22.88 174.118 23.34 174.258 23.94C174.418 24.54 174.328 25.1 173.988 25.62C173.668 26.14 173.208 26.47 172.608 26.61ZM169.638 10.2C168.518 9.92 167.348 9.71 166.128 9.57C164.908 9.43 163.708 9.35 162.528 9.33C161.368 9.31 160.298 9.35 159.318 9.45C158.698 9.53 158.148 9.38 157.668 9C157.188 8.62 156.908 8.12 156.828 7.5C156.748 6.9 156.898 6.35 157.278 5.85C157.658 5.35 158.158 5.07 158.778 5.01C159.998 4.91 161.308 4.88 162.708 4.92C164.128 4.94 165.528 5.03 166.908 5.19C168.308 5.35 169.568 5.58 170.688 5.88C171.288 6.02 171.748 6.35 172.068 6.87C172.408 7.39 172.498 7.95 172.338 8.55C172.198 9.15 171.858 9.61 171.318 9.93C170.798 10.25 170.238 10.34 169.638 10.2ZM188.688 29.55C188.108 29.55 187.598 29.34 187.158 28.92C186.738 28.5 186.528 27.99 186.528 27.39V22.38C186.308 22.72 186.098 23.04 185.898 23.34C185.718 23.64 185.548 23.92 185.388 24.18C185.068 24.72 184.598 25.06 183.978 25.2C183.378 25.32 182.818 25.21 182.298 24.87C181.798 24.53 181.488 24.06 181.368 23.46C181.268 22.84 181.398 22.28 181.758 21.78C182.378 20.9 183.088 19.88 183.888 18.72C184.708 17.54 185.588 16.35 186.528 15.15V12.09C186.268 12.15 185.938 12.25 185.538 12.39C185.138 12.51 184.758 12.62 184.398 12.72C184.058 12.82 183.818 12.89 183.678 12.93C183.078 13.07 182.518 12.98 181.998 12.66C181.478 12.32 181.148 11.85 181.008 11.25C180.868 10.65 180.968 10.09 181.308 9.57C181.648 9.05 182.118 8.72 182.718 8.58C182.938 8.52 183.248 8.45 183.648 8.37C184.068 8.29 184.488 8.2 184.908 8.1C185.328 8 185.668 7.93 185.928 7.89C186.028 7.85 186.128 7.83 186.228 7.83C186.348 7.81 186.448 7.79 186.528 7.77V3.93C186.528 3.33 186.738 2.82 187.158 2.4C187.598 1.98 188.108 1.77 188.688 1.77C189.288 1.77 189.798 1.98 190.218 2.4C190.658 2.82 190.878 3.33 190.878 3.93V8.31C191.238 8.57 191.548 8.91 191.808 9.33C191.848 9.37 191.878 9.41 191.898 9.45C191.918 9.49 191.938 9.53 191.958 9.57C192.818 8.93 193.688 8.42 194.568 8.04C195.448 7.64 196.328 7.44 197.208 7.44C199.528 7.44 201.168 8.19 202.128 9.69C203.108 11.19 203.328 13.49 202.788 16.59C202.548 17.97 202.368 19.06 202.248 19.86C202.148 20.64 202.098 21.23 202.098 21.63C202.098 22.01 202.128 22.27 202.188 22.41C202.268 22.55 202.368 22.65 202.488 22.71C202.888 22.93 203.298 22.95 203.718 22.77C204.158 22.57 204.658 22.22 205.218 21.72C205.678 21.3 206.218 21.14 206.838 21.24C207.478 21.34 207.988 21.62 208.368 22.08C208.768 22.56 208.938 23.11 208.878 23.73C208.818 24.35 208.558 24.87 208.098 25.29C206.698 26.57 205.228 27.32 203.688 27.54C202.148 27.76 200.788 27.52 199.608 26.82C198.508 26.14 197.848 25.11 197.628 23.73C197.428 22.35 197.568 20.45 198.048 18.03C198.408 16.27 198.578 14.95 198.558 14.07C198.558 13.17 198.398 12.56 198.078 12.24C197.778 11.92 197.358 11.76 196.818 11.76C196.298 11.76 195.708 11.97 195.048 12.39C194.408 12.81 193.728 13.37 193.008 14.07C192.308 14.77 191.598 15.55 190.878 16.41V27.39C190.878 27.99 190.658 28.5 190.218 28.92C189.798 29.34 189.288 29.55 188.688 29.55Z" fill="#301E1E"/>
</svg>
